<svg class="svg-icon" style="width: 1em; height: 1em;vertical-align: middle;fill: blue;overflow: hidden;" viewBox="0 0 1024 1024" version="1.1" xmlns="http://www.w3.org/2000/svg"><path d="M170.65984 42.65984l682.65984 0q53.00224 0 90.50112 37.49888t37.49888 90.50112l0 682.65984q0 53.00224-37.49888 90.50112t-90.50112 37.49888l-682.65984 0q-53.00224 0-90.50112-37.49888t-37.49888-90.50112l0-682.65984q0-53.00224 37.49888-90.50112t90.50112-37.49888zM853.34016 128l-682.65984 0q-17.67424 0-30.16704 12.4928t-12.4928 30.16704l0 682.65984q0 17.67424 12.4928 30.16704t30.16704 12.4928l682.65984 0q17.67424 0 30.16704-12.4928t12.4928-30.16704l0-682.65984q0-17.67424-12.4928-30.16704t-30.16704-12.4928zM512 298.65984q17.67424 0 30.16704 12.4928t12.4928 30.16704l0 128 128 0q17.67424 0 30.16704 12.4928t12.4928 30.16704-12.4928 30.16704-30.16704 12.4928l-128 0 0 128q0 17.67424-12.4928 30.16704t-30.16704 12.4928-30.16704-12.4928-12.4928-30.16704l0-128-128 0q-17.67424 0-30.16704-12.4928t-12.4928-30.16704 12.4928-30.16704 30.16704-12.4928l128 0 0-128q0-17.67424 12.4928-30.16704t30.16704-12.4928z"  /></svg>